<?xml version="1.0" encoding="UTF-8" standalone="no"?>
<svg
   xmlns:dc="http://purl.org/dc/elements/1.1/"
   xmlns:cc="http://creativecommons.org/ns#"
   xmlns:rdf="http://www.w3.org/1999/02/22-rdf-syntax-ns#"
   xmlns:svg="http://www.w3.org/2000/svg"
   xmlns="http://www.w3.org/2000/svg"
   xmlns:sodipodi="http://sodipodi.sourceforge.net/DTD/sodipodi-0.dtd"
   xmlns:inkscape="http://www.inkscape.org/namespaces/inkscape"
   width="297mm"
   height="210mm"
   viewBox="0 0 297 210"
   version="1.1"
   id="svg8"
   inkscape:version="1.0.2-2 (e86c870879, 2021-01-15)"
   sodipodi:docname="drawing-1.svg">
  <defs
     id="defs2" />
  <sodipodi:namedview
     id="base"
     pagecolor="#ffffff"
     bordercolor="#666666"
     borderopacity="1.0"
     inkscape:pageopacity="0.0"
     inkscape:pageshadow="2"
     inkscape:zoom="0.47808737"
     inkscape:cx="192.1483"
     inkscape:cy="333.75244"
     inkscape:document-units="mm"
     inkscape:current-layer="layer1"
     inkscape:document-rotation="0"
     showgrid="false"
     inkscape:window-width="1920"
     inkscape:window-height="1001"
     inkscape:window-x="-9"
     inkscape:window-y="-9"
     inkscape:window-maximized="1" />
  <metadata
     id="metadata5">
    <rdf:RDF>
      <cc:Work
         rdf:about="">
        <dc:format>image/svg+xml</dc:format>
        <dc:type
           rdf:resource="http://purl.org/dc/dcmitype/StillImage" />
        <dc:title></dc:title>
      </cc:Work>
    </rdf:RDF>
  </metadata>
  <g
     inkscape:label="Layer 1"
     inkscape:groupmode="layer"
     id="layer1">
    <g
       id="g20"
       transform="matrix(0.35277777,0,0,0.35277777,8.8372602,17.162846)">
      <path
         d="m 277.969,363.859 c 0,18.067 -18.219,34.383 -39.879,34.411 -21.652,0.043 -38.578,-16.211 -38.668,-34.266 -0.098,-18.066 17.363,-34.793 39.023,-34.902 21.66,-0.122 39.34,16.418 39.524,34.48"
         style="fill:#d38d5f;fill-opacity:1;fill-rule:nonzero;stroke:none"
         id="path22" />
      <path
         d="m 221.672,347.09 c 0,8.461 -6.266,15.316 -14.012,15.332 -7.75,0.023 -14.039,-6.817 -14.078,-15.27 -0.023,-8.464 6.215,-15.355 13.961,-15.406 7.75,-0.055 14.07,6.754 14.129,15.211"
         style="fill:#d38d5f;fill-opacity:1;fill-rule:nonzero;stroke:none"
         id="path24" />
      <path
         d="m 283.238,348.125 c 0,8.941 -6.617,16.195 -14.785,16.215 -8.16,0.027 -14.805,-7.207 -14.84,-16.149 -0.035,-8.941 6.551,-16.226 14.723,-16.281 8.16,-0.062 14.836,7.137 14.902,16.074"
         style="fill:#d38d5f;fill-opacity:1;fill-rule:nonzero;stroke:none"
         id="path26" />
      <path
         d="m 262.07,378.746 c 0,7.988 -9.972,14.469 -22.285,14.484 -12.32,0.016 -22.344,-6.429 -22.398,-14.421 -0.051,-7.989 9.886,-14.489 22.207,-14.536 12.308,-0.054 22.375,6.372 22.476,14.352"
         style="fill:#e9c6af;fill-opacity:1;fill-rule:nonzero;stroke:none"
         id="path28" />
      <path
         d="m 249.699,374.695 c 0,2.243 -4.211,4.063 -9.406,4.071 -5.199,0.004 -9.426,-1.817 -9.441,-4.055 -0.024,-2.246 4.164,-4.082 9.359,-4.094 5.203,-0.015 9.441,1.793 9.488,4.043"
         style="fill:#552200;fill-opacity:1;fill-rule:nonzero;stroke:none"
         id="path30" />
      <path
         d="m 228.828,363.371 c 0,1.727 -1.586,3.133 -3.543,3.141 -1.957,0.004 -3.543,-1.391 -3.558,-3.125 -0.008,-1.739 1.574,-3.149 3.527,-3.16 1.961,-0.008 3.559,1.386 3.57,3.117"
         style="fill:#502d16;fill-opacity:1;fill-rule:nonzero;stroke:none"
         id="path32" />
      <path
         d="m 258.898,364.063 c 0,1.707 -1.578,3.101 -3.523,3.105 -1.953,0.004 -3.539,-1.383 -3.543,-3.098 -0.016,-1.707 1.559,-3.09 3.508,-3.109 1.949,-0.012 3.539,1.359 3.558,3.074"
         style="fill:#502d16;fill-opacity:1;fill-rule:nonzero;stroke:none"
         id="path34" />
      <path
         d="m 192.098,388.121 c 1.246,-0.344 3.234,0.559 5.523,1.199 2.281,0.645 4.867,1.012 7.039,1.332 2.18,0.317 3.953,0.586 5.832,0.981 1.883,0.402 3.875,0.937 5.438,1.18 1.554,0.23 2.683,0.179 5.019,0.687 2.344,0.512 5.887,1.566 10.028,2.211 4.144,0.641 8.871,0.852 13.351,0.262 4.477,-0.578 8.695,-1.961 11.625,-2.813 2.926,-0.859 3.844,-0.762 4.664,-0.926 l 3.133,-0.57 c 2.078,-0.453 2.383,-0.41 4.699,-1.012 2.313,-0.601 2.367,-0.507 5.106,-1.343 3.875,-1.008 10.289,-3.887 16.152,-5.821 1.277,-0.402 2.023,-0.508 3.102,0.395 1.07,0.914 2.472,2.832 3.714,5.062 1.227,2.239 3.672,4.735 4.504,7.297 1.274,2.848 2.512,4.004 2.043,5.727 0,0 -0.922,2.261 -1.617,3.082 -1.066,1.433 -1.473,1.965 -2.359,2.699 -0.918,0.742 -1.817,1.254 -1.817,1.254 0,0 -1.726,0.91 -4.039,2.207 -1.234,0.953 -2.269,1.355 -4.523,2.945 -1.235,0.805 -2.563,1.836 -2.563,1.836 0,0 -1.097,1.051 -1.898,2.332 -0.766,2.016 -1.082,2.852 -1.297,4.61 0.023,1.644 -0.078,3.652 0.008,4.961 0.078,1.3 0.062,2.812 0.101,4.14 0.133,1.613 -0.031,2.504 0.211,4.004 0.012,1.734 0.664,2.969 -0.496,4.281 -1.156,1.301 -3.707,2.446 -6.785,3.157 -3.082,0.707 -6.68,0.961 -10.043,1.375 -3.363,0.398 -6.484,0.921 -10.351,1.378 -3.868,0.45 -8.493,0.821 -13.383,0.934 -4.895,0.106 -10.055,-0.059 -14.867,-0.43 -4.809,-0.367 -9.274,-0.961 -13.313,-1.582 -4.043,-0.613 -7.644,-1.273 -9.91,-2.101 -2.25,-0.821 -3.16,-1.817 -3.672,-2.774 -0.5,-0.941 -0.609,-1.851 -0.336,-3.074 0.27,-1.226 0.906,-2.769 1.234,-4.719 0.321,-1.945 0.321,-4.281 0.321,-6.328 0,-2.058 0,-3.816 -0.074,-5.465 -0.086,-1.652 -0.743,-2.808 -1.684,-3.691 -0.945,-0.875 -2.164,-1.477 -3.754,-1.871 -1.582,-0.406 -3.527,-0.699 -4.902,-0.992 -1.371,-0.289 -2.164,-0.578 -3.641,-0.535 -1.48,0.054 -3.148,0.164 -3.664,-0.762 -0.512,-0.934 0.141,-2.914 0.734,-4.75 0.59,-1.832 1.122,-3.539 1.684,-5.348 0.578,-1.812 1.16,-3.73 1.75,-5.594 0.598,-1.867 1.18,-3.668 1.723,-5.382 0.535,-1.696 1.023,-3.301 2.25,-3.645 z"
         style="fill:#0088aa;fill-opacity:1;fill-rule:nonzero;stroke:none"
         id="path36" />
      <path
         d="m 202.777,443.215 c -0.773,0.703 -1.582,2.449 -2.308,4.105 -0.723,1.653 -1.371,3.196 -2.172,4.746 -0.813,1.539 -1.785,3.082 -2.692,4.571 -0.914,1.492 -1.773,2.929 -2.316,3.976 -0.539,1.032 -0.75,1.672 -1.121,2.285 -0.375,0.61 -0.922,1.2 -0.578,1.145 0.355,-0.051 1.598,-0.742 3.07,-1.094 1.477,-0.34 3.199,-0.34 4.899,-0.34 1.691,0 3.355,0 5.129,0.27 1.773,0.266 3.664,0.793 5.457,1.648 1.8,0.852 3.519,2.02 4.918,3.356 1.402,1.324 0.929,5.332 2.003,7.035 0.02,3.074 -0.66,4.633 -1.293,6.281 -0.945,1.922 -1.171,2.633 -1.921,3.809 -0.559,1.137 3.714,-1.328 5.609,-2.621 1.625,-1.129 2.781,-1.86 3.887,-2.801 0.824,-0.781 1.644,-1.16 1.644,-1.16 0,0 1.309,-0.371 2.008,-0.371 0.699,0 1.559,0.101 2.66,0.152 1.106,0.059 2.449,0.059 3.766,0.059 1.32,0 2.605,0 4.008,-0.078 1.394,-0.079 2.906,-0.243 4.273,-0.379 1.363,-0.133 2.602,-0.231 3.898,-0.454 1.293,-0.207 2.637,-0.535 4.165,-0.714 1.531,-0.18 3.253,-0.235 4.625,-0.563 1.363,-0.32 2.394,-0.902 3.355,-1.332 0.969,-0.418 1.891,-0.687 2.688,-1.433 0.812,-0.747 1.511,-1.969 2.21,-3.063 0.696,-1.09 1.711,-1.477 3.645,-1.25 3.137,0.652 3.953,0.855 5.406,1.457 2.09,0.863 2.356,2.508 4.332,3.906 1.774,2.711 0.821,3.27 2.004,6.375 0.52,1.344 -0.496,6.379 -0.496,6.379 -2.066,5.531 7.399,-7.433 8.399,-10.117 1.406,-2.652 2.187,-5.098 2.546,-7.352 0.364,-1.859 0.313,-3.179 0.196,-7.222 -0.063,-1.633 -0.789,-4.391 -1.512,-7.332 -0.41,-1.707 -0.664,-2.379 -1.102,-4.145 -0.285,-1.332 -0.675,-2.883 -0.976,-4.136 -0.289,-1.247 -0.563,-2.313 -0.852,-3.356 -0.297,-1.035 -0.625,-2.047 -0.785,-2.687 -0.164,-0.633 -0.164,-0.899 -0.941,-0.5 -0.778,0.398 -2.34,1.457 -4.114,2.207 -1.773,0.738 -3.765,1.175 -5.968,1.515 -2.207,0.348 -4.621,0.61 -7.305,0.957 -2.691,0.352 -5.656,0.774 -8.926,1.149 -3.285,0.363 -6.879,0.691 -10.136,0.851 -3.254,0.156 -6.161,0.156 -9.063,0.082 -2.902,-0.082 -5.805,-0.242 -8.789,-0.398 -2.984,-0.172 -6.047,-0.328 -9.086,-0.754 -3.039,-0.426 -6.047,-1.109 -8.391,-1.594 -2.336,-0.48 -4,-0.746 -5.214,-1.07 -1.207,-0.313 -1.961,-0.692 -2.743,0 z"
         style="fill:#d38d5f;fill-opacity:1;fill-rule:nonzero;stroke:none"
         id="path38" />
      <path
         d="m 217.066,475.086 c 0,10.422 -9.476,18.883 -21.179,18.91 -11.711,0.016 -21.231,-8.406 -21.282,-18.84 -0.05,-10.426 9.387,-18.926 21.098,-18.992 11.715,-0.066 21.262,8.324 21.363,18.754"
         style="fill:#deaa87;fill-opacity:1;fill-rule:nonzero;stroke:none"
         id="path40" />
      <path
         d="m 278.594,482.488 c 0,9.559 -10.141,19.192 -21.606,19.219 -11.48,0.016 -19.961,-9.594 -20.008,-19.141 -0.05,-9.554 9.2,-17.324 20.676,-17.394 11.473,-0.059 20.84,7.621 20.934,17.172"
         style="fill:#deaa87;fill-opacity:1;fill-rule:nonzero;stroke:none"
         id="path42" />
      <path
         d="m 209.23,474.035 c 0,9.195 -6.941,17.254 -16.226,17.274 -9.289,0.023 -16.367,-7.715 -16.402,-16.899 -0.039,-9.195 7.121,-15.555 16.406,-15.617 9.297,-0.051 16.14,6.051 16.222,15.242"
         style="fill:#d38d5f;fill-opacity:1;fill-rule:nonzero;stroke:none"
         id="path44" />
      <path
         d="m 270.547,482.395 c 0,8.566 -6.477,16.269 -15.633,16.285 -9.164,0.015 -16.469,-7.649 -16.508,-16.219 -0.039,-8.57 6.278,-14.496 15.434,-14.551 9.156,-0.058 16.633,5.785 16.707,14.352"
         style="fill:#d38d5f;fill-opacity:1;fill-rule:nonzero;stroke:none"
         id="path46" />
      <path
         d="m 199.836,353.012 c -3.699,-3.282 -3.965,-9.321 -0.602,-13.621 3.364,-4.293 9.118,-5.27 12.977,-2.2"
         style="fill:#a05a2c;fill-opacity:1;fill-rule:nonzero;stroke:none"
         id="path48" />
      <path
         d="m 265.555,338.055 c 4.25,-2.899 10.008,-2.094 12.953,1.808 2.953,3.91 2.012,9.496 -2.11,12.575"
         style="fill:#a05a2c;fill-opacity:1;fill-rule:nonzero;stroke:none"
         id="path50" />
      <path
         d="m 276.004,388.711 c 5.383,-8.75 9.777,-20.922 23.719,-15.754 10.472,4.098 9.183,14.66 3.015,27.426"
         style="fill:#d38d5f;fill-opacity:1;fill-rule:nonzero;stroke:none"
         id="path52" />
      <path
         d="m 183.801,412.406 c -12.848,-2.367 -21.598,-9.734 -18.723,-19.308 2.719,-7.852 16.356,-10.602 26.82,-5.184"
         style="fill:#d38d5f;fill-opacity:1;fill-rule:nonzero;stroke:none"
         id="path54" />
      <path
         d="m 240.063,378.258 c -0.047,0.137 -0.137,0.41 -0.293,1.515 -0.141,1.106 -0.329,3.04 -0.188,4.024 0.141,0.984 0.621,1.031 0.84,0.883 0.215,-0.149 0.172,-0.489 0.156,-1.141 -0.023,-0.66 -0.031,-1.633 -0.019,-2.383 0.019,-0.75 0.058,-1.269 0.086,-1.722 0.023,-0.45 0.043,-0.821 -0.051,-1.032 -0.09,-0.211 -0.285,-0.242 -0.387,-0.265 -0.094,-0.016 -0.094,-0.016 -0.144,0.121 z"
         style="fill:#502d16;fill-opacity:1;fill-rule:nonzero;stroke:none"
         id="path56" />
      <path
         d="m 228.063,381 c 0.078,0.195 0.238,0.59 0.468,0.949 0.242,0.36 0.547,0.715 0.832,1.004 0.285,0.293 0.535,0.535 0.782,0.735 0.25,0.195 0.492,0.359 0.789,0.531 0.3,0.16 0.644,0.332 0.972,0.449 0.332,0.109 0.645,0.164 0.965,0.191 0.32,0.032 0.652,0.051 0.977,0.055 0.316,0.012 0.609,0.012 0.91,-0.012 0.293,-0.011 0.582,-0.058 0.855,-0.089 0.274,-0.032 0.516,-0.055 0.782,-0.098 0.257,-0.047 0.531,-0.121 0.796,-0.18 0.27,-0.062 0.524,-0.097 0.782,-0.14 0.25,-0.047 0.492,-0.098 0.699,-0.137 0.207,-0.035 0.375,-0.067 0.613,-0.082 0.231,-0.012 0.504,-0.012 0.918,0.039 0.414,0.043 0.945,0.133 1.442,0.254 0.5,0.117 0.957,0.265 1.359,0.414 0.394,0.14 0.734,0.277 1.133,0.375 0.406,0.094 0.871,0.14 1.246,0.164 0.371,0.027 0.648,0.023 0.918,0 0.277,-0.02 0.527,-0.063 0.859,-0.16 0.324,-0.098 0.719,-0.254 1.09,-0.422 0.375,-0.172 0.719,-0.367 1.035,-0.578 0.317,-0.215 0.606,-0.442 0.871,-0.672 0.258,-0.227 0.512,-0.445 0.75,-0.703 0.242,-0.262 0.492,-0.551 0.485,-0.821 0,-0.269 -0.254,-0.519 -0.383,-0.648 -0.129,-0.137 -0.129,-0.137 -0.098,-0.211 0.035,-0.078 0.102,-0.238 0.188,-0.367 0.082,-0.125 0.175,-0.215 0.222,-0.27 0.043,-0.043 0.043,-0.043 0.16,0.016 0.118,0.066 0.356,0.18 0.583,0.34 0.23,0.156 0.441,0.355 0.628,0.519 0.188,0.168 0.348,0.305 0.481,0.442 0.141,0.148 0.266,0.289 0.348,0.418 0.093,0.129 0.136,0.23 0.093,0.343 -0.043,0.118 -0.179,0.239 -0.289,0.325 -0.097,0.093 -0.187,0.136 -0.226,0.172 -0.039,0.019 -0.039,0.019 -0.133,-0.079 -0.098,-0.097 -0.289,-0.304 -0.461,-0.402 -0.164,-0.094 -0.305,-0.082 -0.461,0.027 -0.16,0.106 -0.332,0.313 -0.523,0.532 -0.192,0.226 -0.411,0.465 -0.653,0.703 -0.254,0.238 -0.547,0.48 -0.879,0.722 -0.328,0.243 -0.707,0.5 -1.093,0.731 -0.383,0.223 -0.77,0.422 -1.141,0.559 -0.367,0.136 -0.715,0.21 -1.039,0.269 -0.32,0.059 -0.625,0.09 -0.93,0.129 -0.324,0.043 -0.652,0.086 -0.969,0.141 -0.312,0.062 -0.609,0.128 -0.847,0.195 -0.231,0.062 -0.414,0.117 -0.61,0.176 -0.211,0.058 -0.433,0.121 -0.644,0.207 -0.223,0.078 -0.418,0.172 -0.637,0.265 -0.215,0.09 -0.445,0.184 -0.66,0.278 -0.211,0.078 -0.418,0.16 -0.613,0.211 -0.211,0.043 -0.407,0.062 -0.633,0.062 -0.231,0.008 -0.481,0.008 -0.738,-0.031 -0.25,-0.043 -0.485,-0.121 -0.731,-0.227 -0.238,-0.097 -0.48,-0.23 -0.707,-0.371 -0.226,-0.144 -0.43,-0.301 -0.656,-0.426 -0.219,-0.128 -0.461,-0.23 -0.703,-0.324 -0.242,-0.097 -0.5,-0.191 -0.711,-0.258 -0.211,-0.066 -0.367,-0.113 -0.52,-0.152 -0.16,-0.055 -0.312,-0.109 -0.586,-0.152 -0.281,-0.051 -0.687,-0.09 -1.07,-0.141 -0.383,-0.035 -0.738,-0.086 -1.129,-0.18 -0.383,-0.093 -0.801,-0.23 -1.187,-0.398 -0.391,-0.168 -0.754,-0.367 -1.067,-0.543 -0.304,-0.18 -0.562,-0.344 -0.82,-0.535 -0.266,-0.18 -0.535,-0.395 -0.785,-0.637 -0.258,-0.246 -0.5,-0.519 -0.692,-0.766 -0.191,-0.246 -0.343,-0.468 -0.488,-0.667 -0.144,-0.2 -0.281,-0.387 -0.394,-0.512 -0.102,-0.133 -0.204,-0.192 -0.25,-0.223 -0.051,-0.047 -0.051,-0.047 -0.172,0.07 -0.129,0.114 -0.379,0.344 -0.516,0.461 -0.125,0.114 -0.125,0.114 -0.187,0.059 -0.063,-0.043 -0.18,-0.137 -0.278,-0.234 -0.097,-0.106 -0.176,-0.219 -0.211,-0.325 -0.023,-0.117 -0.015,-0.234 0.102,-0.39 0.121,-0.153 0.347,-0.348 0.582,-0.531 0.238,-0.168 0.472,-0.344 0.664,-0.461 0.191,-0.125 0.34,-0.207 0.539,-0.297 0.18,-0.09 0.414,-0.2 0.574,-0.2 0.156,0 0.246,0.11 0.356,0.266 0.109,0.156 0.234,0.371 0.289,0.481 0.066,0.101 0.066,0.101 -0.063,0.179 -0.129,0.078 -0.387,0.25 -0.508,0.321 -0.132,0.082 -0.132,0.082 -0.046,0.273 z"
         style="fill:#502d16;fill-opacity:1;fill-rule:nonzero;stroke:none"
         id="path58" />
      <path
         d="m 237.688,384.84 c 0.16,-0.063 0.382,-0.106 0.621,-0.133 0.238,-0.035 0.5,-0.055 0.738,-0.066 0.242,-0.02 0.457,-0.036 0.707,-0.039 0.238,0 0.508,0.011 0.742,0.023 0.238,0.02 0.449,0.043 0.731,0.09 0.285,0.043 0.652,0.125 0.878,0.234 0.239,0.117 0.336,0.289 0.309,0.535 -0.027,0.25 -0.199,0.59 -0.402,0.86 -0.203,0.265 -0.446,0.465 -0.657,0.613 -0.21,0.141 -0.39,0.227 -0.578,0.289 -0.187,0.063 -0.379,0.102 -0.554,0.121 -0.18,0.024 -0.336,0.024 -0.504,0.016 -0.164,-0.02 -0.34,-0.043 -0.492,-0.086 -0.161,-0.043 -0.305,-0.082 -0.461,-0.168 -0.168,-0.086 -0.34,-0.207 -0.489,-0.309 -0.132,-0.101 -0.234,-0.183 -0.328,-0.265 -0.094,-0.086 -0.172,-0.18 -0.281,-0.348 -0.102,-0.156 -0.234,-0.383 -0.305,-0.586 -0.07,-0.219 -0.074,-0.414 -0.019,-0.539 0.054,-0.133 0.168,-0.191 0.344,-0.242 z"
         style="fill:#aa0000;fill-opacity:1;fill-rule:nonzero;stroke:none"
         id="path60" />
      <path
         d="m 281.547,386.758 c 0.816,-6.231 9.613,-12.508 15.371,-11.395 8.547,3.606 6.359,13.844 4.445,18.828 l -13.004,-5.179 z"
         style="fill:#deaa87;fill-opacity:1;fill-rule:nonzero;stroke:none"
         id="path62" />
      <path
         d="m 178.59,407.773 c -6.391,-2.355 -12.652,-9.285 -10.906,-13.808 1.757,-4.535 10.808,-6.969 17.336,-3.981 l -3.258,9.079 z"
         style="fill:#deaa87;fill-opacity:1;fill-rule:nonzero;stroke:none"
         id="path64" />
      <path
         d="m 10.426,139.762 7.308,6.277 c 8.77,3.711 15.34,2.981 21.477,-0.949 5.742,-3.223 8.758,-8.133 13.348,-11.942 4.582,-3.816 11.601,-11.402 17.019,-15.543 5.41,-4.136 8.699,-7.441 14.949,-11.378 6.246,-3.922 12.789,-8.11 19.672,-12.079 6.867,-3.972 10.071,-5.496 16.676,-8.07 8.641,-3.375 19.918,-9.48 26.793,-12.066 6.875,-2.598 16.168,-6.313 16.168,-6.313 0,0 13.918,-3.996 20.727,-6.289 6.808,-2.312 15.882,-5.047 23.605,-6.812 6.387,-1.602 12.129,-3.149 20.301,-4.496 11.691,-1.399 18.484,-4.313 27.285,-4.219 27.836,-3.762 32.367,1.301 39.441,0.594 7.09,-0.711 -3.394,-3.696 1.188,-4.114 4.586,-0.418 6.383,-0.84 12.086,-1.09 5.683,-0.246 15.258,-0.332 24.847,-0.421 -5.14,-1.504 -10.269,-3.004 -12.836,-3.75 -2.582,-0.758 -2.582,-0.758 -5.574,-1.391 -2.968,-0.629 -8.945,-1.879 -14.148,-2.879 -5.215,-1.004 -9.645,-1.758 -14.653,-2.562 -5.003,-0.782 -10.542,-1.622 -17.003,-2.379 -6.454,-0.75 -13.813,-1.418 -21.938,-1.922 -8.125,-0.496 -17.008,-0.836 -24.922,-0.918 -7.918,-0.086 -14.867,0.082 -21.519,0.383 -6.672,0.289 -13.059,0.703 -19.442,1.242 -6.375,0.551 -12.765,1.215 -19.441,2.297 -6.66,1.101 -13.602,2.605 -21.235,4.359 -7.644,1.75 -15.964,3.77 -24.171,6.27 -8.188,2.511 -16.246,5.519 -23.809,8.57 -7.562,3.055 -14.66,6.144 -20.957,9.414 -6.336,3.254 -11.883,6.687 -16.805,9.863 -4.933,3.18 -9.246,6.114 -13.957,9.66 -4.722,3.559 -9.867,7.739 -13.879,11.668 -4.035,3.934 -6.949,7.606 -9.515,11.207 -2.571,3.59 -4.805,7.11 -6.809,10.707 -2.004,3.594 -3.808,7.27 -4.789,10.372 -0.969,3.089 -1.113,5.597 -0.219,8.613 0.891,3.023 2.805,6.551 4.731,10.086"
         style="fill:#ffca80;fill-opacity:1;fill-rule:nonzero;stroke:none"
         id="path66" />
      <path
         d="m 430.949,216.129 c -17.816,17.426 -127.961,116.305 -127.961,116.305 -19.472,17.781 18.309,-19.852 60.965,-59.336 37.297,-35.196 84.828,-74.383 66.996,-56.969 z"
         style="fill:#ff3300;fill-opacity:1;fill-rule:nonzero;stroke:none"
         id="path68" />
      <path
         d="m 381.406,174.652 c -14.644,21.723 -84.019,131.899 -92.828,145.969 -8.793,14.074 13.965,-17.676 37.406,-53.476 23.438,-35.801 70.063,-114.219 55.422,-92.493 z"
         style="fill:#ff3300;fill-opacity:1;fill-rule:nonzero;stroke:none"
         id="path70" />
      <path
         d="M 59.156,173.246 C 74.824,193.5 165.465,313.543 179.047,329.727 192.617,345.91 158.84,308.258 121.02,261.102 81.059,207.52 43.48,152.992 59.156,173.246 Z"
         style="fill:#ff3300;fill-opacity:1;fill-rule:nonzero;stroke:none"
         id="path72" />
      <path
         d="m 108.684,124.172 c 10.398,23.082 79.738,180.117 86.328,193.234 6.582,13.121 -27.254,-70.824 -44.242,-107.019 -16.993,-36.199 -52.489,-109.289 -42.086,-86.215 z"
         style="fill:#ff3300;fill-opacity:1;fill-rule:nonzero;stroke:none"
         id="path74" />
      <path
         d="m 234.484,476.004 c -5.484,-7.238 -26.066,-29.828 -30.871,-33.887 -4.82,-4.051 3.84,10.863 14.129,22.16 10.293,11.297 22.227,18.965 16.742,11.727 z"
         style="fill:#803300;fill-opacity:1;fill-rule:nonzero;stroke:none"
         id="path76" />
      <path
         d="m 234.484,476.004 c 5.246,-3.027 28.137,-18.508 38.93,-27.277 10.797,-8.77 9.496,-10.817 4.246,-7.789 -5.242,3.027 -15.566,9.39 -26.367,18.152 -10.797,8.762 -22.063,19.953 -16.809,16.914 z"
         style="fill:#803300;fill-opacity:1;fill-rule:nonzero;stroke:none"
         id="path78" />
      <path
         d="m 204.391,421.523 c 12.422,-2.207 63.804,-3.359 76.058,-1.816 12.262,1.555 -14.613,5.781 -39.297,6.438 -24.672,0.64 -49.195,-2.446 -36.761,-4.622 z"
         style="fill:#803300;fill-opacity:1;fill-rule:nonzero;stroke:none"
         id="path80" />
      <path
         d="m 340.957,133.051 c -6.422,18.625 -65.453,165.644 -72.473,184.637 -7.019,19 3.121,-14.645 16.563,-52.262 13.445,-37.621 62.336,-150.996 55.91,-132.375 z"
         style="fill:#ff3300;fill-opacity:1;fill-rule:nonzero;stroke:none"
         id="path82" />
      <path
         d="m 169.195,90.199 c 4.621,23.754 48.524,215.508 51.45,229.02 2.921,13.496 -2.997,-25.199 -10.547,-62.461 C 202.559,219.5 164.578,66.438 169.195,90.199 Z"
         style="fill:#ff3300;fill-opacity:1;fill-rule:nonzero;stroke:none"
         id="path84" />
      <path
         d="m 5.25,134.23 c -3.137,-3.89 -4.93,-7.066 -5.199,-12.843 -0.278,-5.77 0.547,-13.375 3.551,-19.508 3.015,-6.141 6.429,-11.02 12.886,-18.145 6.797,-6.211 11.149,-11.078 19.825,-17.816 7.691,-5.586 10.406,-8.203 24.792,-17.125 10.079,-5.574 19.227,-10.859 28.77,-14.574 9.715,-3.813 14.598,-6.192 24.906,-9.559 11.496,-3.867 16.953,-5.097 27.192,-7.555 11.695,-2.726 20.754,-4.882 33.621,-7.96 17.894,-3.161 22.41,-4.442 39.914,-6.34 C 235.816,0.93 239.992,0.176 259.273,0 c 17.883,0.156 31.442,-0.418 60.215,2.566 15.133,1.868 29.875,5.114 45.262,9.672 25.477,8.129 30.516,9.403 48.422,18.61 7.773,4.3 16.836,8.937 33.535,19.644 7.813,5.133 21.926,14.153 29.957,21.672 6.586,5.199 14.688,11.707 22.711,20.047 15.074,15.543 28.578,33.492 34.441,46.414 2.938,11.152 3.688,18.965 -9.445,34.672 -16.473,15.726 -33.32,22.199 -60.187,12.758 -12.688,-5.813 -19.489,-9.969 -41.575,-24.844 -17.875,-12.246 -20.98,-14.582 -38.664,-27.246 -24.015,-15.254 -27.781,-17.387 -44.246,-27.008 L 311.301,91.34 C 291.59,81.863 291.66,80.426 272.227,73.746 c -23,-7.859 -33.403,-10.355 -42.235,-13.156 -12.461,-3.332 -16.312,-4.598 -29.066,-6.379 -12.047,-1.672 -21.133,-2.723 -37.649,-4.434 -12.578,-0.23 -14.265,-0.558 -27.867,-0.136 -9.621,1.203 -18.898,2.363 -26.289,4.605 -7.394,2.231 -11.719,2.731 -19.523,5.766 -7.793,3.023 -13.516,5.191 -20.641,8.726 -7.102,3.539 -12.465,6.016 -18.441,9.426 -7.653,4.352 -12.133,7.695 -16.508,10.945 -4.379,3.485 -6.746,5.403 -10.934,9.672 -5.297,5.93 -6.25,7.129 -10.015,14.203 -2.52,5.704 -3.286,9.446 -3.84,13.258 0.371,3.918 0.101,5.617 1.535,9.645 1.594,3.133 3.266,7.148 2.578,6.75 -2.906,-2.875 -5.75,-5.973 -8.082,-8.407 z"
         style="fill:#ff3300;fill-opacity:1;fill-rule:nonzero;stroke:none"
         id="path86" />
    </g>
    <text
       xml:space="preserve"
       style="font-style:normal;font-variant:normal;font-weight:bold;font-stretch:normal;font-size:22.5879px;line-height:1.25;font-family:Arial;-inkscape-font-specification:'Arial, Bold';font-variant-ligatures:normal;font-variant-position:normal;font-variant-caps:normal;font-variant-numeric:normal;font-variant-alternates:normal;font-variant-east-asian:normal;text-indent:0;text-align:start;text-decoration:none;text-decoration-line:none;text-decoration-style:solid;text-decoration-color:#000000;letter-spacing:normal;word-spacing:normal;text-transform:none;writing-mode:lr-tb;direction:ltr;text-orientation:mixed;dominant-baseline:auto;baseline-shift:baseline;text-anchor:start;white-space:normal;shape-padding:0;shape-margin:0;opacity:1;vector-effect:none;fill:#006680;fill-opacity:1;stroke-width:0.358857;stroke-linecap:butt;stroke-linejoin:miter;stroke-miterlimit:4;stroke-dasharray:none;stroke-dashoffset:0;stroke-opacity:1;stop-color:#000000;stop-opacity:1"
       x="134.98598"
       y="117.88531"
       id="text158"
       transform="scale(0.8810263,1.1350399)"><tspan
         sodipodi:role="line"
         id="tspan156"
         x="134.98598"
         y="117.88531"
         style="font-style:normal;font-variant:normal;font-weight:bold;font-stretch:normal;font-size:22.5879px;font-family:Arial;-inkscape-font-specification:'Arial, Bold';font-variant-ligatures:normal;font-variant-caps:normal;font-variant-numeric:normal;font-variant-east-asian:normal;stroke-width:0.358857">Parapanta</tspan></text>
    <text
       xml:space="preserve"
       style="font-style:normal;font-variant:normal;font-weight:bold;font-stretch:normal;font-size:21.4648px;line-height:1.25;font-family:Arial;-inkscape-font-specification:'Arial, Bold';font-variant-ligatures:normal;font-variant-position:normal;font-variant-caps:normal;font-variant-numeric:normal;font-variant-alternates:normal;font-variant-east-asian:normal;text-indent:0;text-align:start;text-decoration:none;text-decoration-line:none;text-decoration-style:solid;text-decoration-color:#000000;letter-spacing:normal;word-spacing:normal;text-transform:none;writing-mode:lr-tb;direction:ltr;text-orientation:mixed;dominant-baseline:auto;baseline-shift:baseline;text-anchor:start;white-space:normal;shape-padding:0;shape-margin:0;opacity:1;vector-effect:none;fill:#ff0000;fill-opacity:1;stroke-width:0.358858;stroke-linecap:butt;stroke-linejoin:miter;stroke-miterlimit:4;stroke-dasharray:none;stroke-dashoffset:0;stroke-opacity:1;stop-color:#000000;stop-opacity:1"
       x="134.85847"
       y="144.76678"
       id="text162"
       transform="scale(0.90758683,1.101823)"><tspan
         sodipodi:role="line"
         id="tspan160"
         x="134.85847"
         y="144.76678"
         style="font-style:normal;font-variant:normal;font-weight:bold;font-stretch:normal;font-size:21.4648px;font-family:Arial;-inkscape-font-specification:'Arial, Bold';font-variant-ligatures:normal;font-variant-caps:normal;font-variant-numeric:normal;font-variant-east-asian:normal;stroke-width:0.358858">Clopotiva</tspan></text>
  </g>
</svg>
